<svg xmlns="http://www.w3.org/2000/svg" id="Layer_1" data-name="Layer 1" viewBox="0 0 144.79 28"><defs><style>      .cls-1 {        fill: #00aeef;      }      .cls-1, .cls-2, .cls-3, .cls-4, .cls-5, .cls-6, .cls-7 {        stroke-width: 0px;      }      .cls-3 {        fill: #fff200;      }      .cls-4 {        fill: #00a551;      }      .cls-5 {        fill: #ec008c;      }      .cls-6 {        fill: #90278e;      }      .cls-7 {        fill: #faaf40;      }    </style></defs><path class="cls-2" d="m42.08,7.04v2.67h-6.9v4.22h5.29v2.62h-5.29v6.96h-3.32V7.04h10.22Z"></path><path class="cls-2" d="m44.37,13.41c.53-1.02,1.25-1.81,2.16-2.36.91-.55,1.93-.83,3.05-.83.98,0,1.84.2,2.57.59.74.39,1.32.89,1.77,1.49v-1.86h3.34v13.07h-3.34v-1.91c-.43.61-1.02,1.12-1.77,1.52-.75.4-1.62.6-2.6.6-1.11,0-2.12-.28-3.02-.85-.91-.57-1.63-1.36-2.16-2.39-.53-1.03-.79-2.21-.79-3.55s.26-2.49.79-3.52Zm9.07,1.5c-.32-.57-.74-1.01-1.28-1.32-.54-.31-1.11-.46-1.73-.46s-1.19.15-1.71.45c-.52.3-.95.74-1.27,1.31-.32.57-.49,1.25-.49,2.04s.16,1.47.49,2.06c.32.59.75,1.04,1.28,1.36.53.31,1.09.47,1.7.47s1.19-.15,1.73-.46c.54-.31.96-.75,1.28-1.32.32-.57.47-1.26.47-2.06s-.16-1.49-.47-2.06Z"></path><path class="cls-2" d="m60.49,13.42c.55-1.01,1.32-1.8,2.3-2.36.98-.56,2.1-.84,3.37-.84,1.63,0,2.98.41,4.04,1.22,1.07.81,1.78,1.95,2.15,3.41h-3.58c-.19-.57-.51-1.01-.96-1.33-.45-.32-1.01-.48-1.67-.48-.95,0-1.7.34-2.25,1.03-.55.68-.83,1.66-.83,2.91s.28,2.21.83,2.89c.55.68,1.3,1.03,2.25,1.03,1.34,0,2.22-.6,2.63-1.79h3.58c-.36,1.42-1.08,2.54-2.16,3.37-1.08.83-2.42,1.25-4.03,1.25-1.27,0-2.39-.28-3.37-.84-.98-.56-1.75-1.34-2.3-2.36-.55-1.01-.83-2.2-.83-3.55s.28-2.54.83-3.55Z"></path><path class="cls-2" d="m75.01,8.33c-.39-.37-.58-.83-.58-1.38s.19-1.01.58-1.38c.39-.37.87-.55,1.46-.55s1.07.19,1.46.55c.39.37.58.83.58,1.38s-.19,1.01-.58,1.38c-.39.37-.87.55-1.46.55s-1.07-.18-1.46-.55Zm3.1,2.11v13.07h-3.32v-13.07h3.32Z"></path><path class="cls-2" d="m84.7,6.05v17.46h-3.32V6.05h3.32Z"></path><path class="cls-1" d="m100.18,15.17c-.47.83-1.17,1.49-2.11,1.98s-2.09.74-3.45.74h-2.3v5.62h-4.65V6.87h6.95c1.34,0,2.49.24,3.43.71.94.47,1.65,1.12,2.12,1.96.47.83.71,1.79.71,2.88,0,1.01-.23,1.92-.7,2.75Zm-4.04-2.75c0-1.21-.66-1.82-1.97-1.82h-1.85v3.61h1.85c1.31,0,1.97-.6,1.97-1.79Z"></path><path class="cls-1" d="m109.3,10.81c.74-.44,1.54-.66,2.4-.66v4.93h-1.3c-1.01,0-1.76.2-2.25.59-.49.39-.74,1.08-.74,2.05v5.78h-4.65v-13.24h4.65v2.34c.52-.76,1.15-1.35,1.9-1.79Z"></path><path class="cls-1" d="m113.73,8.37c-.5-.45-.75-1.01-.75-1.69s.25-1.27.75-1.72c.5-.46,1.16-.68,1.98-.68s1.46.23,1.96.68c.5.46.75,1.03.75,1.72s-.25,1.24-.75,1.69c-.5.45-1.15.67-1.96.67s-1.48-.22-1.98-.67Zm4.28,1.9v13.24h-4.65v-13.24h4.65Z"></path><path class="cls-1" d="m133.02,11.68c.9,1.01,1.35,2.39,1.35,4.12v7.72h-4.65v-7.1c0-.75-.2-1.35-.59-1.78-.4-.43-.93-.65-1.59-.65s-1.24.22-1.64.65c-.4.43-.59,1.03-.59,1.78v7.1h-4.65v-13.24h4.65v1.89c.41-.6.96-1.08,1.66-1.45.7-.37,1.49-.55,2.4-.55,1.53,0,2.75.51,3.65,1.52Z"></path><path class="cls-1" d="m144.79,19.57v3.94h-2.02c-3.4,0-5.1-1.68-5.1-5.03v-4.36h-1.64v-3.85h1.64v-3.21h4.67v3.21h2.42v3.85h-2.42v4.44c0,.36.08.62.25.78.17.16.45.24.84.24h1.35Z"></path><polygon class="cls-6" points="8.83 17.48 8.83 17.48 13.2 21.84 14.26 21.84 12.08 17.48 8.83 17.48"></polygon><path class="cls-5" d="m8.83,20.53v7.12c.7.19,1.43.29,2.18.29h2.18v-6.1h0l-4.36-4.36v3.05Z"></path><path class="cls-2" d="m4.36,15.16v-2.03h8.83v-4.36H0v6.39c0,5.2,3.72,11.14,8.83,12.5v-4.67c-2.53-1.38-4.47-4.91-4.47-7.83Z"></path><path class="cls-4" d="m23.41,4.03l-3.26,2.92c.15.19.29.39.42.6l4.01-1.79c-.33-.61-.73-1.19-1.17-1.73Z"></path><path class="cls-1" d="m20.57,7.55c.6.99.96,2.15.96,3.39,0,3.61-2.94,6.54-6.54,6.54h-2.92l2.18,4.36h.73c6.01,0,10.91-4.89,10.91-10.91,0-1.87-.48-3.64-1.31-5.18l-4.01,1.79Z"></path><polygon class="cls-2" points="0 .05 0 4.42 4.36 4.42 5.1 4.42 15.01 4.42 15.01 .05 0 .05"></polygon><path class="cls-7" d="m15.85.09c-.28-.02-.55-.04-.84-.04h0v4.36h0c.28,0,.56.02.84.06.1.01.19.03.28.05l1.17-4.22c-.47-.1-.96-.17-1.45-.21Z"></path><path class="cls-3" d="m17.92.45c-.2-.06-.41-.1-.62-.15l-1.17,4.22c.19.03.38.07.57.12,1.39.37,2.59,1.19,3.45,2.3l3.26-2.92c-1.4-1.7-3.31-2.97-5.5-3.57Z"></path></svg>